PathFileType	4	(X/Y/Z)	OpenSim_Sub04_EMGBaseline_Magnet.trc
DataRate	CameraRate	NumFrames	NumMarkers	Units	OrigDataRate	OrigDataStartFrame	OrigNumFrames
100	100	40	8	m	100	4964	7941
Frame#	Time	torso_imu_offset_imu	pelvis_imu_offset_imu	tibia_r_imu_offset_imu	femur_r_imu_offset_imu	tibia_l_imu_offset_imu	femur_l_imu_offset_imu	toes_r_imu_offset_imu	toes_l_imu_offset_imu
				X1	Y1	Z1	X2	Y2	Z2	X3	Y3	Z3	X4	Y4	Z4	X5	Y5	Z5	X6	Y6	Z6	X7	Y7	Z7	X8		Y8	Z8	

4964	49.63000000	0.94524589	0.14043483	-0.12495900	-0.62498474	0.09726871	-0.68747252	-0.42156237	-0.69411721	-0.14125376	-0.75857895	-0.33779157	0.14472806	-0.46274576	0.65786323	0.19707159	-0.76729557	0.07765410	0.31293320	-0.67739463	-0.23256749	-0.35900834	-0.77607785	-0.20072310	-0.15061054
4965	49.64000000	0.94639339	0.13804426	-0.11838550	-0.61807238	0.09759910	-0.69181597	-0.42402710	-0.70076788	-0.13762848	-0.75444715	-0.34157533	0.13788475	-0.49629395	0.63173954	0.20525611	-0.76941757	0.07513489	0.31859728	-0.67686719	-0.23403102	-0.36809136	-0.76674173	-0.21264357	-0.17183845
4966	49.65000000	0.94314329	0.13681887	-0.11778354	-0.62391932	0.09436907	-0.69673708	-0.41822312	-0.70525899	-0.13512795	-0.75656245	-0.34352913	0.13764087	-0.52103515	0.60620409	0.20687556	-0.76923504	0.07252686	0.32264617	-0.67486696	-0.23888820	-0.37215632	-0.75171700	-0.22226047	-0.19549895
4967	49.66000000	0.94745586	0.13838317	-0.11170003	-0.61587439	0.09176508	-0.69154521	-0.41256359	-0.70370872	-0.14152590	-0.75259300	-0.34855372	0.13468733	-0.55217604	0.57327608	0.20257742	-0.77220223	0.07888509	0.32431477	-0.67466612	-0.24793529	-0.37815282	-0.74445405	-0.23669382	-0.22172235
4968	49.67000000	0.94703448	0.13726087	-0.11208217	-0.61349203	0.09560538	-0.69284901	-0.41099143	-0.70822655	-0.13776742	-0.74789308	-0.35735051	0.14214387	-0.57510393	0.54851793	0.20158576	-0.77332048	0.07501040	0.32428338	-0.67503898	-0.25732665	-0.38199796	-0.73359506	-0.24557473	-0.24459825
4969	49.68000000	0.94651464	0.14094130	-0.11291313	-0.61529670	0.09311469	-0.69499503	-0.40759712	-0.71351777	-0.13654069	-0.75159971	-0.36476864	0.14438669	-0.60716704	0.52215928	0.19314895	-0.76796018	0.07555680	0.32384617	-0.67935596	-0.26368651	-0.38935869	-0.73213163	-0.25390303	-0.27175469
4970	49.69000000	0.94532444	0.13831946	-0.11745775	-0.61574281	0.09398742	-0.69768548	-0.40211255	-0.71970927	-0.13801412	-0.74633257	-0.36527272	0.14586808	-0.62806085	0.49037393	0.18790666	-0.76577263	0.08267857	0.32148671	-0.68300879	-0.27550521	-0.39575080	-0.72227900	-0.25309150	-0.29253423
4971	49.70000000	0.94974556	0.13895532	-0.11512984	-0.61684824	0.09528196	-0.69506309	-0.39794474	-0.71619851	-0.13617481	-0.74587244	-0.36756252	0.14419321	-0.65414616	0.46540235	0.18542068	-0.76893451	0.07835902	0.32255266	-0.68375914	-0.28797044	-0.39621154	-0.70545460	-0.26342984	-0.31153096
4972	49.71000000	0.94873951	0.14165253	-0.10724045	-0.61327319	0.09289707	-0.68802102	-0.38405919	-0.72339221	-0.13521420	-0.74241243	-0.37668622	0.14594101	-0.67524610	0.43263410	0.17094620	-0.76501690	0.08387381	0.32404913	-0.68565174	-0.29224274	-0.40530400	-0.70147163	-0.26581104	-0.33187040
4973	49.72000000	0.94686500	0.14221660	-0.10786637	-0.61518260	0.09429124	-0.69475674	-0.38263723	-0.72709529	-0.13112178	-0.73281558	-0.37391386	0.14170597	-0.69641862	0.40662109	0.16261828	-0.76430772	0.08800203	0.32549220	-0.69519857	-0.30309707	-0.41012372	-0.68811607	-0.27754026	-0.34066681
4974	49.73000000	0.94705185	0.13593690	-0.10837346	-0.61307452	0.10129933	-0.68932162	-0.37545498	-0.73109876	-0.13410682	-0.74134385	-0.37626891	0.14866314	-0.71253893	0.37435554	0.15814847	-0.75870004	0.09234059	0.33049175	-0.69634197	-0.31003126	-0.41244500	-0.67566494	-0.28537762	-0.35692060
4975	49.74000000	0.94705359	0.13765022	-0.11225176	-0.61362104	0.10584207	-0.69177537	-0.36964326	-0.73254385	-0.13498311	-0.73477085	-0.37968216	0.15594731	-0.72668462	0.34345646	0.15631866	-0.76114507	0.09724153	0.32614443	-0.70183966	-0.31428273	-0.41587637	-0.66520781	-0.29487029	-0.37057376
4976	49.75000000	0.94684027	0.14462470	-0.11317057	-0.61346834	0.10454512	-0.69386092	-0.36195094	-0.73606802	-0.13413097	-0.72991291	-0.38708213	0.15027842	-0.73631763	0.32137469	0.15370920	-0.75953955	0.10296011	0.32806380	-0.70910300	-0.32436517	-0.41277188	-0.64576550	-0.31159640	-0.38903008
4977	49.76000000	0.94352062	0.14601983	-0.11284067	-0.61409064	0.11143410	-0.68500826	-0.35304627	-0.74393375	-0.14023916	-0.73214465	-0.38998354	0.15104329	-0.74555561	0.29572096	0.14431588	-0.76106889	0.10521669	0.32699854	-0.71344159	-0.33780137	-0.40808440	-0.62741586	-0.33006274	-0.40999714
4978	49.77000000	0.94118246	0.14172207	-0.10362930	-0.61640734	0.11430906	-0.68601764	-0.35237589	-0.74479479	-0.13956830	-0.72831589	-0.39667909	0.15512981	-0.75691649	0.27944185	0.14122140	-0.75642239	0.10950692	0.33333168	-0.72090022	-0.34354610	-0.40514695	-0.60934823	-0.33939957	-0.43073304
4979	49.78000000	0.94443363	0.14968535	-0.11493285	-0.61492394	0.11478749	-0.68704531	-0.34057164	-0.74515834	-0.14315425	-0.72333351	-0.39576257	0.14422872	-0.75826863	0.26020888	0.13889340	-0.75842271	0.11158865	0.33292073	-0.72339175	-0.34890896	-0.40354311	-0.59037590	-0.34544885	-0.44121974
4980	49.79000000	0.94325087	0.14699415	-0.11850601	-0.61266074	0.11962518	-0.69027707	-0.33044608	-0.75094981	-0.14478226	-0.72524405	-0.40648623	0.14472685	-0.76497641	0.24058583	0.14521982	-0.76114218	0.11326132	0.33954287	-0.73173066	-0.35523121	-0.39291327	-0.57174205	-0.34942894	-0.45541647
4981	49.80000000	0.94256679	0.14998549	-0.11506204	-0.61487706	0.12684363	-0.68320772	-0.32216738	-0.75759871	-0.13998970	-0.72299864	-0.40640383	0.13801349	-0.76780214	0.23489733	0.14235606	-0.75380636	0.11397994	0.34588644	-0.73789948	-0.37161599	-0.38604803	-0.56298596	-0.35363242	-0.46752958
4982	49.81000000	0.93474359	0.15081007	-0.11987497	-0.60877022	0.13293853	-0.68533696	-0.31341032	-0.75599345	-0.14869349	-0.72273865	-0.40549385	0.13873366	-0.76823967	0.22235990	0.13406390	-0.75068227	0.12179041	0.34212278	-0.74782414	-0.37546591	-0.37596631	-0.55246253	-0.36195087	-0.47379804
4983	49.82000000	0.94527159	0.15015846	-0.11896105	-0.61626402	0.12982630	-0.68918232	-0.30265019	-0.76219716	-0.14803216	-0.72118698	-0.40946980	0.13528549	-0.77188977	0.21466882	0.14591608	-0.74808466	0.12590133	0.34992405	-0.75448092	-0.37624949	-0.36960858	-0.54691223	-0.37350463	-0.48002370
4984	49.83000000	0.94200827	0.15550230	-0.12009893	-0.61016428	0.13895967	-0.68978391	-0.29541920	-0.76473713	-0.14923939	-0.72263114	-0.41201947	0.12841554	-0.76908518	0.22157427	0.15180197	-0.74421243	0.11876880	0.35304307	-0.76463793	-0.38334754	-0.35540084	-0.53999761	-0.37507037	-0.47805800
4985	49.84000000	0.94450524	0.15442694	-0.12149918	-0.61582054	0.14188178	-0.69091591	-0.28687757	-0.77059408	-0.14542944	-0.72096241	-0.41517950	0.12487779	-0.76388179	0.22802981	0.14951892	-0.74329933	0.11789483	0.35372619	-0.76978429	-0.39233748	-0.33969542	-0.54354625	-0.37964788	-0.47536260
4986	49.85000000	0.94108305	0.16335445	-0.12328069	-0.61650791	0.14477680	-0.68351897	-0.27042409	-0.77315071	-0.15050453	-0.72258819	-0.41310963	0.12157338	-0.75912593	0.24222573	0.15794533	-0.74010726	0.11721335	0.35770325	-0.77406427	-0.39798806	-0.32866725	-0.54374781	-0.37747360	-0.47792196
4987	49.86000000	0.93763038	0.16659985	-0.12876535	-0.61536866	0.14775177	-0.67986581	-0.25930609	-0.78181757	-0.15157668	-0.72124950	-0.41578217	0.11523035	-0.76117306	0.24670726	0.16985231	-0.74446740	0.11314018	0.35777967	-0.78051858	-0.39551463	-0.31186158	-0.56058270	-0.37313114	-0.46594849
4988	49.87000000	0.93666070	0.16890138	-0.12696206	-0.61625405	0.14986932	-0.67339659	-0.24228827	-0.78402313	-0.15143904	-0.72481241	-0.41768032	0.11302842	-0.75287665	0.26061185	0.17715758	-0.74042256	0.10982976	0.36366960	-0.78685719	-0.40707920	-0.29692206	-0.56363697	-0.37983655	-0.46033319
4989	49.88000000	0.93381335	0.16979880	-0.13214699	-0.61366815	0.15832033	-0.66734816	-0.23103149	-0.78281567	-0.15097457	-0.72276979	-0.41965799	0.10889223	-0.74256158	0.27124517	0.19118294	-0.73781685	0.10545362	0.36916006	-0.79512346	-0.41180218	-0.27750650	-0.56321942	-0.37905001	-0.45576699
4990	49.89000000	0.93734716	0.16956323	-0.13255182	-0.62011416	0.15515119	-0.67383165	-0.21939538	-0.79006711	-0.14872083	-0.72448209	-0.41914877	0.10568873	-0.73647813	0.28181351	0.19770869	-0.73806313	0.11134643	0.36538961	-0.80346148	-0.41450276	-0.25566463	-0.57589041	-0.37926525	-0.44781510
4991	49.90000000	0.93216657	0.17689426	-0.13308686	-0.61935080	0.16312662	-0.67201888	-0.20199544	-0.79596041	-0.15232855	-0.72264558	-0.41658992	0.09955808	-0.73028372	0.28730029	0.21029985	-0.73087645	0.10669757	0.36562502	-0.80814382	-0.41799500	-0.23095631	-0.58233101	-0.37678637	-0.43317233
4992	49.91000000	0.93113874	0.17533979	-0.14289321	-0.62016880	0.16374661	-0.67255019	-0.18822757	-0.79946031	-0.15745423	-0.72565011	-0.41572062	0.10016700	-0.72922439	0.28909749	0.21674622	-0.73462806	0.11043672	0.38180708	-0.80940805	-0.41914936	-0.20751237	-0.58771815	-0.37549397	-0.41881145
4993	49.92000000	0.93318120	0.18103515	-0.14042670	-0.62570361	0.17161815	-0.66423128	-0.17149063	-0.80186669	-0.15559323	-0.72984180	-0.41648703	0.10035999	-0.72791485	0.29187344	0.22486023	-0.72437259	0.11659389	0.39677380	-0.81658312	-0.42783107	-0.18020956	-0.60709187	-0.37418964	-0.40947024
4994	49.93000000	0.93270074	0.17899183	-0.14622605	-0.63106682	0.17093483	-0.66386492	-0.14985534	-0.80529630	-0.16002710	-0.73061193	-0.40652209	0.09850668	-0.72188986	0.29588433	0.22592036	-0.71661701	0.11832765	0.39881922	-0.81715316	-0.43471881	-0.14855001	-0.61370975	-0.36935489	-0.39617063
4995	49.94000000	0.93077722	0.18009887	-0.15231974	-0.63090282	0.17337772	-0.65743051	-0.13993146	-0.80592762	-0.16249591	-0.73096347	-0.39781738	0.09239802	-0.71855882	0.29859594	0.22925045	-0.71279434	0.12162615	0.40470300	-0.82171114	-0.44377712	-0.10665107	-0.62650570	-0.37299402	-0.38788367
4996	49.95000000	0.93074370	0.17793062	-0.15304997	-0.63413153	0.17542515	-0.65763190	-0.12090666	-0.81248195	-0.16605993	-0.74128298	-0.39955043	0.09453392	-0.71133281	0.30553453	0.23876161	-0.71140146	0.12745729	0.40620457	-0.81470942	-0.44734667	-0.06881411	-0.63042659	-0.36627304	-0.37786202
4997	49.96000000	0.92750330	0.18496316	-0.15246239	-0.63725748	0.17741872	-0.65226968	-0.09832379	-0.81576715	-0.16292943	-0.74561323	-0.39594202	0.08875705	-0.71327460	0.31238789	0.24911523	-0.71114012	0.13026825	0.41684109	-0.81392250	-0.46221346	-0.02348398	-0.63844273	-0.36734682	-0.36836563
4998	49.97000000	0.92423723	0.18129813	-0.15858536	-0.63558435	0.17586124	-0.64903607	-0.07924348	-0.81488852	-0.16073961	-0.75397883	-0.38086626	0.08460268	-0.70667055	0.32133156	0.25399224	-0.70926419	0.13508775	0.41107753	-0.81117771	-0.47271240	0.02823280	-0.64898456	-0.36352847	-0.36545551
4999	49.98000000	0.92691630	0.18825222	-0.15813531	-0.64014317	0.17033132	-0.65082703	-0.05984042	-0.81396406	-0.15839670	-0.75529909	-0.37570782	0.08482114	-0.70081831	0.33031267	0.25663377	-0.70922529	0.12817666	0.40515485	-0.79582235	-0.48370348	0.08438263	-0.65297490	-0.35500883	-0.35761924
5000	49.99000000	0.92846083	0.18973812	-0.16218035	-0.64190319	0.16993687	-0.64816471	-0.04668360	-0.81820441	-0.15621813	-0.75531305	-0.35909942	0.08748502	-0.68857335	0.33814145	0.26880014	-0.70931795	0.13039095	0.41126424	-0.78275203	-0.49170158	0.13325403	-0.65483919	-0.35199387	-0.35745439
5001	50	0.92893314	0.19173391	-0.16695889	-0.64409182	0.16301234	-0.64511696	-0.02427385	-0.82021661	-0.14933076	-0.76118871	-0.34822111	0.08995036	-0.68750762	0.34271318	0.27670336	-0.70549262	0.13259589	0.40950256	-0.76238808	-0.50633218	0.17521750	-0.65516566	-0.35155384	-0.35360357
5002	50.01000000	0.92990135	0.19454088	-0.16255764	-0.64916635	0.16341085	-0.64081579	-0.00542776	-0.82449840	-0.13421139	-0.77656291	-0.33281967	0.08532395	-0.68184311	0.35176370	0.27540227	-0.70178575	0.12704764	0.41293620	-0.74304111	-0.50739456	0.20834158	-0.66116575	-0.35037065	-0.35572433
5003	50.02000000	0.92547683	0.19765520	-0.16628931	-0.65078431	0.16788986	-0.64257013	0.00491437	-0.82577280	-0.12759243	-0.77651869	-0.32299293	0.08739297	-0.67381667	0.35760386	0.28640227	-0.70882204	0.13179572	0.41282907	-0.72707524	-0.51456962	0.24336087	-0.66553779	-0.35090337	-0.35003375
